/* XPM */
static char *_fdaa7692c544469e7c0e5631fe7afa0iEuDMHyusfFycHGZ[] = {
/* columns rows colors chars-per-pixel */
"32 32 10 1 ",
"  c #340000",
". c #291E0D",
"X c #F7EEDB",
"o c #E0D6BD",
"O c #7D766E",
"+ c #AA9F90",
"@ c #998D83",
"# c #6B4A24",
"$ c #5D401F",
"% c #4F3416",
/* pixels */
" ..  ...    .   ..   .......   .",
"XXoooXooXXXooXXoXXoXooX XXXooooX",
"O+++OO@OO+O++OOOOO++OOO oO++++OO",
"++OOO@@OO+O+OOOOO++OOO@.oOOO++++",
"OOOO@@OO+++OO+OO+++OO@O.oO@@OO+O",
"OO@O@@OOOO++OO++++OOO@O.X@@O@OOO",
"O@@@@O@@OO+OOO++OOOOO@@ X@OO@@O@",
"OO@@OO@@@@OOO@OO+++@@OO XOOOO@@@",
"+O@OOOO@OOO@@O@OO+OO@@#.oO@@@@@O",
"+OOOO@@@@O@@@@@OOOO@@O#.o+OO@@OO",
"$%%%##$$###%$$$%%%##$$%.%$$%%%%$",
"...    .....   ......    ....   ",
"XooXXoXXooXXXX XooXXXoooXXXXoooX",
"O++++OO+OO@@@@.oOO++OO+O@@OO@@OO",
"O++O+OOOO@@OO@.oO+++++OOOO@OO@@O",
"O++OOOO@@@@@OO.X++OO+OOO+OO@@@OO",
"OO+OOOO@O@@OOO.X+OOOOOO+++OOOO@@",
"OOOOO+OOOOO@@@.XOOOOO+O++OOOO@@@",
"@@OO++++OO@@O@.o@@O+++++++O++O@@",
"@OO++++O+O@@O#.@@OOOO++OOOOO++OO",
"%%$$%$%%$$$%%% $%$$##$$$$###$$$$",
".      ....   .....   ....  ... ",
"XooXXo.XXoooXXXXooooXXXXoooXXXoo",
"O+++OO.oOO@@@@O+OOOOOOO++O@@OOO@",
"OO+OO@ oO@OOOO+OO@OOOO+OOOO@@O@@",
"@OO@O@ XO++O++OOO@@@@OOOO+OOO@@O",
"OOO@@@ XOO+++++@O@O@OO++O++OOO@O",
"OOOO@@.oOO++OOOO@OOO@O+OO+++OOO@",
"OOO@@O.XOOO++++OOOO@@@O++++OOO@@",
"OO@OOO.XO@O@O++OO@@O@@OO++O@OOO@",
"OOOOO# oO@@@OOOOO@OOO@OO++O@@OOO",
"%$$%$$ %%$$%%%%$$$%%%$%$$#%%%$$%"
};
