/* XPM */
static char *e1f4b059de184790fef70d7c862c6411GA7FIVC5EfcV3rmU[] = {
/* columns rows colors chars-per-pixel */
"32 32 12 1 ",
"  c #676767",
". c gray31",
"X c #766D60",
"o c gray97",
"O c #C7D4D4",
"+ c #DFDFDF",
"@ c gray78",
"# c gray72",
"$ c #979797",
"% c gray50",
"& c #908474",
"* c #9F9F9F",
/* pixels */
" ..  XXX    ....   XXX     .... ",
"oOOooOOOoOOO+.OOOoooOOooOOoo+.Oo",
"+@@+++@@@+++@Xo@@+@###@@@@@@@.O@",
"+#++++++##+@#Xo@++@++@++@+###XO@",
"##@@+##++#@## O@@@++##@##++##Xo#",
"@++@@+##@@@++ o@#++##@@+#+++@ o@",
"+++@@@@@@+++$.o###@@@+@++++@% O@",
"%%$%$$%$$%%$%.%$$%$%$$%$$%%$$.%$",
"...   XX   X.....XX.     X  ....",
".OOoooOOOooOOOO+.OOoooOOOoooOOo+",
".O@@+@##@@++@@@@ O@++@@@@@@++@@@",
" O@++@@+@++@@##@ o@@@@++@@+++@@@",
" o@@##++@@@@###@ o@+@++@###@@@+@",
" O@###+##@+@+++@.O++@@@@#+++@@+@",
" O@@#@##@@+++@@$.O++@++@++@@@++$",
".%$$$%%$%$$$%%$%.%%%$$$%%%$$$%%$",
"&.XX    X.... X....  XX .....  X",
"OOooOOooO+.OOOooOOooOOOOo+.oOoOO",
"@@@@@#@@@@ O@++#@@++###@@@.o@@@@",
"@+@@##@++@ o++##@++++@@+@@ O@@+@",
"++@@##@@+@ o@+##++@###++++ O@@++",
"##@##@@++@XO++@@@####@@+@@.o@++#",
"#+@@@@++@*XO@+@@@++++@++@* O@@+#",
"%$$%%%$$%%.%$$$%%$$$%%%$$%X%$$%%",
".  .XX.  ....   XX ....  .XX.   ",
"Ooo*XooOOoooOOoooOO+.OOOooOOOoOO",
"#@@* o@@###+@@+++@@* O@+++@@@@@#",
"##@* O@@@#+++@@+++@* o@@@@++++@#",
"+@@@ O@+@@@+@@@@@+++.o@@+++#++@@",
"+@@@.o@+###@@###@@@@ O@++###+@@+",
"++@$ o@@++##@@###@@$.O@@###@@@++",
"%$$%.%%%%$$$%%%%$$$%.%$$$%%$$%%%"
};
