/* XPM */
static char *fb8d807b3d4a49fba68b09102fbbce38WJ6nXBPVNI1tEStS[] = {
/* columns rows colors chars-per-pixel */
"32 32 14 1 ",
"  c #4F453D",
". c #342A2A",
"X c #222222",
"o c #352D1B",
"O c #463A1E",
"+ c #61441B",
"@ c #6A5C52",
"# c #463939",
"$ c #825B24",
"% c #473D25",
"& c #907D50",
"* c gray18",
"= c #867F7F",
"- c #5E4E29",
/* pixels */
"   ..X ... . X .......XXooXX... ",
".... X ..  . X ... XXXOooo .. ..",
" ..  X .  .. o     Xo . .O .....",
".....X   .  XXoXXXoX ... O . ...",
".    Xo    X..     X . . o     .",
"XXXXXOXXoXX.... .. X ..  +++Oooo",
"  o      X  ...  + . . +.o    o ",
".  . + .+X . .++. ... .+  ... X ",
"@#$$@@#@$%@@$$@@&@@#$@@$@@@##$%&",
"@#@$$$$$$%$@@@$@@@$*$$@@@@@@@$%&",
"$$#@$$$&$*$$@@$$$@$%$@$$@@$$$@%&",
"%$&$#@&$%%*****%%%****%%******%%",
"&%=#$#&*$#@#@#@@@=$$$-$$#$$$&&==",
"&$=@#=@-&@#@#&#@&@@&@-$#=#$=&$&$",
"@-&@@@&-@&@$@&@#$&@@$*$@&=@@@@@@",
"&-@$&&&%&@@@&@@@@@@@$*=@&@&$@&@@",
"&%&@@@&%&@$&@$&&@@$@$*&@@$@@=&@&",
"&%=&&@@*&&&@&=&@$$&=&%&$&&&@@=$@",
"@%-$$%--*-$$%---%--**%%**%%&@@&&",
"@*&&&&&&@&&@&&&&%&@&$&&&&$&%=@@@",
"&-&@@&@@@@@&&@@@$&@@@@@=&@@&%&=@",
"&%@@$@@@@&@&@@$&$&=@&&@=@@@@%@&&",
"%*&@@@@@@@$@@@&&$=@&&@@@&@@&--%%",
"&&%&&@&@&@@@@&@&$$@@@@@@&&@&-&&=",
"$@=-===&=&=&&=$@%&&&&&@@@@@&$&@=",
"@@@=%**%-$$$$$--*%$**%&&@&@&$&@@",
"@&$@&$%&==&&@%&&&@@@@&%&@&@@$@@@",
"&@@=@&$&@$@@&$&@@@@&@@&%@@$=%&@@",
"&&=&=&-@&@@$=$&@&@@@@@@&-@&=%&&@",
"%%---%%&&@&=&%@@&&@&&&@@@-%***%%",
"&&$&&&%@$@@&$%&@@@@@@&@@&-&@&&@&",
"@@&@@&-&@$@@&%&&&&@@&&&@&%&@@@@@"
};
