/* XPM */
static char *c5d37033f3614f45b56b6723b663ff61Ag3CfLO8Vk0kH8Tk[] = {
/* columns rows colors chars-per-pixel */
"32 32 9 1 ",
"  c #682C00",
". c #340000",
"X c #766D60",
"o c #E8CC88",
"O c #F4DA9B",
"+ c #C4B46C",
"@ c #B0A060",
"# c #85622B",
"$ c #A08848",
/* pixels */
" ..  XXX    ....   XXX     .... ",
"oOOooOOOoOOO+.OOOoooOOooOOoo+.Oo",
"+@@+++@@@+++#Xo@@+@@@@@@@@@@$.O@",
"+@++++++@@+@#Xo@++@++@++@++@$XO@",
"@@@@+++++@@@@ O@@@+++@@@@++@@Xo@",
"@++@@+@@@@@++ o@@+++@@@+@+++@ o@",
"+++@@@@@@+++$.o@@@@@@+@++++@# O@",
"##$#@@#@$##$#.#$$#$#++#$$##$$.#$",
"...   XX   X.....XX.     X  ....",
".OOoooOOOooOOOO+.OOoooOOOoooOOo+",
".O@@+@@@@@++@@@# O@++@@@@@@++@@#",
" O@++@@+@++@@@@# o@@@@++@@+++@@#",
" o@@@@++@@@@@+@@ o@+@++@@@@@@@+#",
" O@@+@+@@@+@+++@.O++@@@@@+++@@+@",
" O@@@@@@@@+++@@$.O++@++@++@@@++$",
".#$$$####$$$##$#.###$$$###$$$##$",
"X.XX    X.... X....  XX .....  X",
"OOooOOooO+.OOOooOOooOOOOo+.oOoOO",
"@@@@@@@@@$ O@+++@@++++@@@$.o@@@@",
"@+@@@+@++$ o+++@@++++@@++$ O@@+@",
"++@@++@@+@ o@+@@++@@@@++++ O@@++",
"@@@++@@++@XO++@@@@@@@@@+@@.o@+++",
"@+@@@@++@$XO@+@@@++++@++@$ O@@+@",
"#@@###$$##.#$$$##$@@###$$#X#$$##",
".  .XX.  ....   XX ....  .XX.   ",
"Ooo+XooOOoooOOoooOO+.OOOooOOOoOO",
"@@@$ o@@@+++@@+++@@$ O@+++@@@@@+",
"++@$ O@@@@+++@@+++@$ o@@@@++++@+",
"+@@@ O@+@@@+@@@@@+++.o@@+++@++@@",
"+@@@.o@+++@@@@++@@@@ O@++++@+@@+",
"++@$ o@@+++@@@+++@@$.O@@++@@@@++",
"#$$#.####$@@####$$@#.#$@$##$@###"
};
